<svg width="4697" height="2593" viewBox="0 0 4697 2593" fill="none" xmlns="http://www.w3.org/2000/svg">
<path d="M1352.95 778.448H1468.85V1794.05H1352.95V1332.81H840.038V1794.05H724.137V778.448H840.038V1223.85H1352.95V778.448Z" fill="#ECE0D7"/>
<path d="M2168.3 1281.64V1793.68H2055.34V1657.48C2029.22 1715.64 1947.91 1809.87 1798.52 1809.87C1666.43 1809.87 1556.42 1737.36 1556.42 1599.32C1556.42 1461.28 1650.61 1410.85 1847.83 1380.3C1986.91 1360.05 2055.34 1346.8 2055.34 1268.39C2055.34 1189.99 2008.98 1136.24 1910.38 1136.24C1790.06 1136.24 1737.81 1199.92 1730.82 1310.36H1620.44C1624.85 1165.32 1707.64 1044.95 1914.79 1044.95C2070.06 1044.95 2168.67 1123.36 2168.67 1281.64H2168.3ZM2053.51 1509.5V1407.9C2007.14 1432.57 1944.59 1448.39 1870.64 1463.12C1742.96 1487.78 1673.42 1515.39 1673.42 1598.21C1673.42 1681.04 1740.02 1715.64 1822.81 1715.64C1947.54 1715.64 2053.14 1608.15 2053.14 1509.5H2053.51Z" fill="#ECE0D7"/>
<path d="M2624.18 1067.04H2667.6V1162.75H2624.18C2502.39 1162.75 2382.07 1233.79 2382.07 1490.73V1794.05H2269.12V1067.04H2382.07V1188.88C2421.08 1081.4 2531.46 1067.04 2624.18 1067.04Z" fill="#ECE0D7"/>
<path d="M2978.87 1698.34H3063.13V1794.05H2957.16C2822.13 1794.05 2739.34 1708.28 2739.34 1566.19V1059.68L2695.93 875.259H2810.36L2853.77 1059.68H3032.22V1162.75H2853.77V1549.99C2853.77 1651.59 2894.25 1697.97 2978.5 1697.97L2978.87 1698.34Z" fill="#ECE0D7"/>
<path d="M3091.09 1434.03C3091.09 1199.18 3221.71 1049.73 3439.16 1049.73C3656.61 1049.73 3787.23 1199.18 3787.23 1434.03C3787.23 1668.89 3656.61 1814.29 3439.16 1814.29C3221.71 1814.29 3091.09 1664.84 3091.09 1434.03ZM3672.8 1434.03C3672.8 1265.81 3584.5 1156.85 3439.16 1156.85C3293.82 1156.85 3205.52 1265.81 3205.52 1434.03C3205.52 1602.26 3295.66 1708.27 3439.16 1708.27C3582.66 1708.27 3672.8 1601.15 3672.8 1434.03Z" fill="#ECE0D7"/>
<path d="M3844.65 1643.13H3976.74V1794.05H3844.65V1643.13Z" fill="#ECE0D7"/>
<path fill-rule="evenodd" clip-rule="evenodd" d="M3833.33 1631.81H3988.05V1805.36H3833.33V1631.81ZM3855.96 1654.44V1782.73H3965.42V1654.44H3855.96Z" fill="#ECE0D7"/>
</svg>
